<svg width="480" height="480" viewBox="0 0 480 480" fill="none" xmlns="http://www.w3.org/2000/svg">
<g filter="url(#filter0_i_39_120)">
<path d="M80 102.932C80 88.0314 92.9516 76.4391 107.761 78.0845L329.007 102.667C341.128 104.014 350.509 113.912 351.205 126.088L368.266 424.655C369.164 440.373 355.486 452.998 339.891 450.847L101.584 417.977C89.214 416.271 80 405.699 80 393.212V102.932Z" fill="url(#paint0_linear_39_120)"/>
</g>
<g style="mix-blend-mode:luminosity" filter="url(#filter1_d_39_120)">
<path d="M80 96.3971C80 84.08 88.9712 73.5983 101.141 71.6968L369.363 29.7871C385.115 27.3258 399.115 40.0396 398.179 55.9554L381.171 345.087C380.486 356.736 371.834 366.361 360.324 368.279L109.11 410.148C93.8717 412.688 80 400.937 80 385.488V96.3971Z" fill="url(#paint1_radial_39_120)" shape-rendering="crispEdges"/>
</g>
<g style="mix-blend-mode:difference">
<path d="M80 96.4118C80 84.0883 88.9803 73.6031 101.157 71.7089L122.499 68.3891C136.258 66.2488 149.114 75.7624 151.089 89.546L191.529 371.777C193.458 385.238 184.274 397.772 170.857 399.989L109.075 410.196C93.8474 412.712 80 400.965 80 385.531V96.4118Z" fill="url(#paint2_linear_39_120)"/>
</g>
<g style="mix-blend-mode:color-dodge">
<path d="M100.599 105.735C100.26 98.8233 105.244 92.7921 112.096 91.8237C119.278 90.8086 125.962 95.6979 127.17 102.85L171.452 365.079C172.851 373.363 167.174 381.18 158.864 382.414L130.873 386.569C122.103 387.871 114.123 381.323 113.689 372.467L100.599 105.735Z" fill="url(#paint3_linear_39_120)"/>
</g>
<g style="mix-blend-mode:overlay">
<line x1="98.001" y1="393.046" x2="87.001" y2="152.046" stroke="white" stroke-width="2" stroke-dasharray="10 10"/>
</g>
<path d="M315.968 65.9063C315.343 71.9412 314.719 77.9762 314.397 85.2472C314.076 92.5181 314.076 100.842 315.532 113.559C316.989 126.275 319.903 143.131 321.403 153.479C322.904 163.828 322.904 167.157 322.592 169.081C322.28 171.004 321.656 171.42 319.669 171.011C314.215 169.885 306.969 165.776 297.856 159.603C292.698 155.718 286.455 150.307 282.823 146.896C279.19 143.484 278.358 142.236 276.239 139.688" stroke="#8CFF9D" stroke-width="21" stroke-linecap="round"/>
<path d="M318.49 166.804C320.987 164.723 323.484 162.642 328.205 157.096C332.925 151.55 339.792 142.601 344.474 136.847C349.157 131.093 351.446 128.804 353.804 126.445" stroke="#8CFF9D" stroke-width="21" stroke-linecap="round"/>
<defs>
<filter id="filter0_i_39_120" x="80" y="77.9287" width="318.308" height="403.158" filterUnits="userSpaceOnUse" color-interpolation-filters="sRGB">
<feFlood flood-opacity="0" result="BackgroundImageFix"/>
<feBlend mode="normal" in="SourceGraphic" in2="BackgroundImageFix" result="shape"/>
<feColorMatrix in="SourceAlpha" type="matrix" values="0 0 0 0 0 0 0 0 0 0 0 0 0 0 0 0 0 0 127 0" result="hardAlpha"/>
<feOffset dx="30" dy="30"/>
<feGaussianBlur stdDeviation="40"/>
<feComposite in2="hardAlpha" operator="arithmetic" k2="-1" k3="1"/>
<feColorMatrix type="matrix" values="0 0 0 0 0 0 0 0 0 0 0 0 0 0 0 0 0 0 1 0"/>
<feBlend mode="soft-light" in2="shape" result="effect1_innerShadow_39_120"/>
</filter>
<filter id="filter1_d_39_120" x="58" y="7.48094" width="378.224" height="441.014" filterUnits="userSpaceOnUse" color-interpolation-filters="sRGB">
<feFlood flood-opacity="0" result="BackgroundImageFix"/>
<feColorMatrix in="SourceAlpha" type="matrix" values="0 0 0 0 0 0 0 0 0 0 0 0 0 0 0 0 0 0 127 0" result="hardAlpha"/>
<feOffset dx="8" dy="8"/>
<feGaussianBlur stdDeviation="15"/>
<feComposite in2="hardAlpha" operator="out"/>
<feColorMatrix type="matrix" values="0 0 0 0 0 0 0 0 0 0 0 0 0 0 0 0 0 0 0.15 0"/>
<feBlend mode="normal" in2="BackgroundImageFix" result="effect1_dropShadow_39_120"/>
<feBlend mode="normal" in="SourceGraphic" in2="effect1_dropShadow_39_120" result="shape"/>
</filter>
<linearGradient id="paint0_linear_39_120" x1="345" y1="428" x2="161.5" y2="188" gradientUnits="userSpaceOnUse">
<stop stop-color="#A3FF97"/>
<stop offset="1" stop-color="#FD4E6D"/>
</linearGradient>
<radialGradient id="paint1_radial_39_120" cx="0" cy="0" r="1" gradientUnits="userSpaceOnUse" gradientTransform="translate(378 364) rotate(-135.541) scale(411.908 339.218)">
<stop offset="0.515" stop-color="#D6D6D6" stop-opacity="0.85"/>
<stop offset="1" stop-color="#B9B9B9"/>
</radialGradient>
<linearGradient id="paint2_linear_39_120" x1="220" y1="75" x2="220" y2="415" gradientUnits="userSpaceOnUse">
<stop stop-color="#D6D6D6"/>
<stop offset="1" stop-color="#B9B9B9"/>
</linearGradient>
<linearGradient id="paint3_linear_39_120" x1="225" y1="94.4165" x2="225" y2="394.742" gradientUnits="userSpaceOnUse">
<stop stop-color="#D6D6D6"/>
<stop offset="1" stop-color="#B9B9B9"/>
</linearGradient>
</defs>
</svg>
