<svg width="480" height="480" viewBox="0 0 480 480" fill="none" xmlns="http://www.w3.org/2000/svg">
<path d="M369.363 29.7867C385.115 27.3258 399.115 40.04 398.179 55.9557L381.171 345.088C380.582 355.106 374.099 363.628 364.973 367.037L368.266 424.655C369.164 440.372 355.486 452.998 339.891 450.847L101.584 417.977C89.214 416.271 80 405.699 80 393.212V385.531C80.0001 400.965 93.8475 412.712 109.075 410.196L170.857 399.989C184.274 397.772 193.458 385.238 191.529 371.777L151.089 89.5455C149.114 75.7622 136.258 66.2491 122.499 68.3893L101.157 71.7086C88.9803 73.6028 80 84.0883 80 96.4117V96.3971C80 84.0801 88.9712 73.5984 101.141 71.6969L369.363 29.7867Z" fill="#222222"/>
<path d="M100.599 105.735C100.26 98.8233 105.244 92.7921 112.096 91.8237C119.278 90.8086 125.962 95.6979 127.17 102.85L171.452 365.079C172.851 373.363 167.174 381.18 158.864 382.414L130.873 386.569C122.103 387.871 114.123 381.323 113.689 372.467L100.599 105.735Z" fill="#222222"/>
</svg>
